<?xml version="1.0" encoding="utf-8"?>
<svg width="117" height="34" viewBox="0 0 117 34" fill="none" xmlns="http://www.w3.org/2000/svg">
  <path d="M6 19.7917C6 12.1181 12.2207 5.89746 19.8943 5.89746H102.894C110.568 5.89746 116.789 12.1181 116.789 19.7917C116.789 27.4653 110.568 33.686 102.894 33.686H19.8943C12.2207 33.686 6 27.4653 6 19.7917Z" fill="#FFB128"/>
  <path d="M2.77405 8.73533L1.00632 2.13173C0.73293 1.37357 1.45935 0.636499 2.2214 0.898826L8.94025 2.58241C10.1544 3.00037 10.2551 4.67853 9.09967 5.23872L8.38507 5.58517C7.1998 6.1598 6.2474 7.12346 5.68673 8.31539L5.43068 8.85973C4.88494 10.0199 3.20898 9.94146 2.77405 8.73533Z" fill="#FFB128"/>
  <text style="fill: rgb(255, 255, 255); font-family: Arial, sans-serif; font-size: 8.9px; white-space: pre;" x="32.858" y="22.451">Vyve</text>
  <path d="M 19.863 13.005 C 14.628 13.98 14.02 17.962 14.02 17.962 C 15.182 18.15 16.347 19.397 16.347 19.397 C 18.312 21.919 19.863 26.275 19.863 26.275 C 21.555 26.275 22.665 24.677 22.665 24.677 C 23.196 24 24.015 22.322 24.015 22.322 C 25.073 19.045 27.397 16.66 27.397 16.66 C 24.622 12.435 19.863 13.005 19.863 13.005 Z M 22.479 20.994 C 21.633 23.378 20.894 23.756 20.894 23.756 C 20.894 23.756 18.568 17.879 16.294 17.391 C 16.294 17.391 19.916 12.22 24.913 16.607 C 24.913 16.607 23.326 18.612 22.479 20.994 Z" style="stroke-width: 1; fill: rgb(255, 255, 255);"/>
</svg>