<?xml version="1.0" encoding="utf-8"?>
<svg width="179" height="53" viewBox="0 0 179 53" fill="none" xmlns="http://www.w3.org/2000/svg">
  <path d="M0.833496 22.0295C0.833496 9.87925 10.6832 0.0295105 22.8335 0.0295105H148.833C160.984 0.0295105 170.833 9.87925 170.833 22.0295C170.833 34.1798 160.984 44.0295 148.833 44.0295H22.8335C10.6832 44.0295 0.833496 34.1798 0.833496 22.0295Z" fill="#8D79FF" fill-opacity="1"/>
  <path d="M175.941 39.5356L178.74 49.9917C179.173 51.1921 178.023 52.3592 176.816 51.9438L166.178 49.2781C164.255 48.6163 164.096 45.9591 165.925 45.0721L167.057 44.5236C168.934 43.6137 170.442 42.0879 171.329 40.2006L171.735 39.3387C172.599 37.5016 175.253 37.6259 175.941 39.5356Z" fill="#8D79FF"/>
  <path d="M 25.837 31.163 C 30.883 31.163 34.973 27.073 34.973 22.027 C 34.973 16.981 30.883 12.891 25.837 12.891 C 20.792 12.891 16.701 16.981 16.701 22.027 C 16.701 27.073 20.792 31.163 25.837 31.163 Z" stroke-width="2" stroke-linecap="round" stroke-linejoin="round" style="stroke-width: 2; stroke: rgba(255, 255, 255, 1);"/>
  <path d="M 28.324 18.615 C 28.771 18.467 28.994 18.392 29.143 18.446 C 29.272 18.491 29.373 18.593 29.419 18.723 C 29.472 18.87 29.397 19.093 29.249 19.54 L 27.89 23.618 C 27.847 23.745 27.826 23.808 27.79 23.861 C 27.758 23.907 27.718 23.947 27.671 23.979 C 27.619 24.016 27.555 24.037 27.428 24.08 L 23.35 25.439 C 22.904 25.587 22.68 25.662 22.533 25.608 C 22.404 25.563 22.301 25.462 22.256 25.332 C 22.202 25.184 22.277 24.961 22.425 24.514 L 23.785 20.437 C 23.827 20.309 23.849 20.246 23.885 20.193 C 23.917 20.147 23.957 20.107 24.003 20.075 C 24.056 20.039 24.12 20.017 24.247 19.975 L 28.324 18.615 Z" stroke-width="2" stroke-linecap="round" stroke-linejoin="round" style="stroke-width: 2; stroke: rgba(255, 255, 255, 1);"/>
  <text style="fill: rgba(255, 255, 255, 1); font-family: Arial, sans-serif; font-size: 13.9px; white-space: pre;" x="46.353" y="27.148">Explorer</text>
</svg>