<?xml version="1.0" encoding="utf-8"?>
<svg width="185" height="53" viewBox="0 0 185 53" fill="none" xmlns="http://www.w3.org/2000/svg">
  <path d="M0.514648 30.5474C0.514648 18.3972 10.3644 8.54742 22.5146 8.54742H154.515C166.665 8.54742 176.515 18.3972 176.515 30.5474C176.515 42.6977 166.665 52.5474 154.515 52.5474H22.5146C10.3644 52.5474 0.514648 42.6977 0.514648 30.5474Z" fill="#29AEFF" fill-opacity="1"/>
  <path d="M172.021 3.43954L182.477 0.640551C183.677 0.207661 184.844 1.35786 184.429 2.56449L181.763 13.203C181.101 15.1255 178.444 15.285 177.557 13.4554L177.009 12.3239C176.099 10.4472 174.573 8.93919 172.686 8.05144L171.824 7.64601C169.987 6.78189 170.111 4.12821 172.021 3.43954Z" fill="#29AEFF"/>
  <path d="M 25.589 33.056 C 22.884 33.056 20.692 30.863 20.692 28.159 L 20.692 23.625 C 20.692 23.288 20.692 23.119 20.741 22.984 C 20.824 22.757 21.002 22.578 21.229 22.496 C 21.365 22.447 21.534 22.447 21.871 22.447 L 29.307 22.447 C 29.644 22.447 29.813 22.447 29.948 22.496 C 30.175 22.578 30.354 22.757 30.436 22.984 C 30.485 23.119 30.485 23.288 30.485 23.625 L 30.485 28.159 C 30.485 30.863 28.293 33.056 25.589 33.056 Z M 25.589 33.056 L 25.589 35.504 M 30.485 24.079 L 32.525 24.079 C 32.905 24.079 33.096 24.079 33.246 24.141 C 33.446 24.224 33.604 24.383 33.687 24.583 C 33.749 24.733 33.749 24.923 33.749 25.303 L 33.749 25.711 C 33.749 26.47 33.749 26.849 33.666 27.161 C 33.439 28.005 32.78 28.665 31.935 28.891 C 31.623 28.976 31.244 28.976 30.485 28.976 M 20.692 24.079 L 18.652 24.079 C 18.272 24.079 18.082 24.079 17.932 24.141 C 17.732 24.224 17.573 24.383 17.49 24.583 C 17.428 24.733 17.428 24.923 17.428 25.303 L 17.428 25.711 C 17.428 26.47 17.428 26.849 17.511 27.161 C 17.738 28.005 18.397 28.665 19.243 28.891 C 19.554 28.976 19.933 28.976 20.692 28.976 M 21.871 38.768 L 29.307 38.768 C 29.507 38.768 29.669 38.606 29.669 38.405 C 29.669 36.802 28.37 35.504 26.767 35.504 L 24.41 35.504 C 22.807 35.504 21.508 36.802 21.508 38.405 C 21.508 38.606 21.671 38.768 21.871 38.768 Z" stroke-width="2" stroke-linecap="round" stroke-linejoin="round" style="stroke-width: 2; stroke: rgba(255, 255, 255, 1);"/>
  <text style="fill: rgba(255, 255, 255, 1); font-family: Arial, sans-serif; font-size: 13.9px; white-space: pre; transform-box: fill-box; transform-origin: 34.4803px 7.76543px;" x="46.502" y="35.524">Popular</text>
</svg>